grf
version=1
nRows=25
nColumns=46
inDegrees=yes
endheader
time	ground_force_1_vx	ground_force_1_vy	ground_force_1_vz	ground_force_1_px	ground_force_1_py	ground_force_1_pz	ground_moment_1_mx	ground_moment_1_my	ground_moment_1_mz	ground_force_2_vx	ground_force_2_vy	ground_force_2_vz	ground_force_2_px	ground_force_2_py	ground_force_2_pz	ground_moment_2_mx	ground_moment_2_my	ground_moment_2_mz	ground_force_3_vx	ground_force_3_vy	ground_force_3_vz	ground_force_3_px	ground_force_3_py	ground_force_3_pz	ground_moment_3_mx	ground_moment_3_my	ground_moment_3_mz	ground_force_4_vx	ground_force_4_vy	ground_force_4_vz	ground_force_4_px	ground_force_4_py	ground_force_4_pz	ground_moment_4_mx	ground_moment_4_my	ground_moment_4_mz	ground_force_5_vx	ground_force_5_vy	ground_force_5_vz	ground_force_5_px	ground_force_5_py	ground_force_5_pz	ground_moment_5_mx	ground_moment_5_my	ground_moment_5_mz
0.000000	0.000000	0.000000	0.000000	0.000000	0.000000	0.000000	0.000000	0.000000	0.000000	0.000000	0.000000	0.000000	0.000000	0.000000	0.000000	0.000000	0.000000	0.000000	0.000000	0.000000	0.000000	0.000000	0.000000	0.000000	0.000000	0.000000	0.000000	4.792468	524.768229	-130.333755	0.178004	0.000000	-0.895557	0.000000	3.231193	0.000000	-2.102009	522.934068	130.898735	0.205707	0.000000	-1.568819	-0.000000	-1.032947	-0.000000
0.000500	0.000000	0.000000	0.000000	0.000000	0.000000	0.000000	0.000000	0.000000	0.000000	0.000000	0.000000	0.000000	0.000000	0.000000	0.000000	0.000000	0.000000	0.000000	0.000000	0.000000	0.000000	0.000000	0.000000	0.000000	0.000000	0.000000	0.000000	4.786070	524.776897	-130.316347	0.177999	0.000000	-0.895569	0.000000	3.238677	0.000000	-2.095104	522.901908	130.895013	0.205711	0.000000	-1.568841	0.000000	-1.040600	-0.000000
0.001000	0.000000	0.000000	0.000000	0.000000	0.000000	0.000000	0.000000	0.000000	0.000000	0.000000	0.000000	0.000000	0.000000	0.000000	0.000000	0.000000	0.000000	0.000000	0.000000	0.000000	0.000000	0.000000	0.000000	0.000000	0.000000	0.000000	0.000000	4.779311	524.784108	-130.298901	0.177994	0.000000	-0.895581	0.000000	3.246110	0.000000	-2.088591	522.869144	130.891254	0.205715	0.000000	-1.568863	0.000000	-1.048203	-0.000000
0.001500	0.000000	0.000000	0.000000	0.000000	0.000000	0.000000	0.000000	0.000000	0.000000	0.000000	0.000000	0.000000	0.000000	0.000000	0.000000	0.000000	0.000000	0.000000	0.000000	0.000000	0.000000	0.000000	0.000000	0.000000	0.000000	0.000000	0.000000	4.772240	524.789724	-130.281450	0.177989	0.000000	-0.895592	0.000000	3.253464	0.000000	-2.082484	522.835866	130.887451	0.205719	0.000000	-1.568885	0.000000	-1.055736	-0.000000
0.002000	0.000000	0.000000	0.000000	0.000000	0.000000	0.000000	0.000000	0.000000	0.000000	0.000000	0.000000	0.000000	0.000000	0.000000	0.000000	0.000000	0.000000	0.000000	0.000000	0.000000	0.000000	0.000000	0.000000	0.000000	0.000000	0.000000	0.000000	4.764893	524.793609	-130.264025	0.177985	0.000000	-0.895603	0.000000	3.260717	0.000000	-2.076795	522.802161	130.883597	0.205724	0.000000	-1.568907	0.000000	-1.063180	-0.000000
0.002500	0.000000	0.000000	0.000000	0.000000	0.000000	0.000000	0.000000	0.000000	0.000000	0.000000	0.000000	0.000000	0.000000	0.000000	0.000000	0.000000	0.000000	0.000000	0.000000	0.000000	0.000000	0.000000	0.000000	0.000000	0.000000	0.000000	0.000000	4.757294	524.795634	-130.246650	0.177980	0.000000	-0.895614	0.000000	3.267846	0.000000	-2.071537	522.768099	130.879692	0.205728	0.000000	-1.568928	0.000000	-1.070516	-0.000000
0.003000	0.000000	0.000000	0.000000	0.000000	0.000000	0.000000	0.000000	0.000000	0.000000	0.000000	0.000000	0.000000	0.000000	0.000000	0.000000	0.000000	0.000000	0.000000	0.000000	0.000000	0.000000	0.000000	0.000000	0.000000	0.000000	0.000000	0.000000	4.749466	524.795687	-130.229351	0.177976	0.000000	-0.895624	0.000000	3.274833	0.000000	-2.066726	522.733741	130.875734	0.205732	0.000000	-1.568949	0.000000	-1.077732	-0.000000
0.003500	0.000000	0.000000	0.000000	0.000000	0.000000	0.000000	0.000000	0.000000	0.000000	0.000000	0.000000	0.000000	0.000000	0.000000	0.000000	0.000000	0.000000	0.000000	0.000000	0.000000	0.000000	0.000000	0.000000	0.000000	0.000000	0.000000	0.000000	4.741435	524.793674	-130.212149	0.177972	0.000000	-0.895634	0.000000	3.281659	0.000000	-2.062379	522.699136	130.871721	0.205737	0.000000	-1.568970	0.000000	-1.084813	-0.000000
0.004000	0.000000	0.000000	0.000000	0.000000	0.000000	0.000000	0.000000	0.000000	0.000000	0.000000	0.000000	0.000000	0.000000	0.000000	0.000000	0.000000	0.000000	0.000000	0.000000	0.000000	0.000000	0.000000	0.000000	0.000000	0.000000	0.000000	0.000000	4.733234	524.789517	-130.195060	0.177968	0.000000	-0.895644	0.000000	3.288309	0.000000	-2.058505	522.664335	130.867652	0.205741	0.000000	-1.568989	0.000000	-1.091750	-0.000000
0.004500	0.000000	0.000000	0.000000	0.000000	0.000000	0.000000	0.000000	0.000000	0.000000	0.000000	0.000000	0.000000	0.000000	0.000000	0.000000	0.000000	0.000000	0.000000	0.000000	0.000000	0.000000	0.000000	0.000000	0.000000	0.000000	0.000000	0.000000	4.724896	524.783150	-130.178094	0.177964	0.000000	-0.895654	0.000000	3.294769	0.000000	-2.055105	522.629388	130.863524	0.205745	0.000000	-1.569009	0.000000	-1.098536	-0.000000
0.005000	0.000000	0.000000	0.000000	0.000000	0.000000	0.000000	0.000000	0.000000	0.000000	0.000000	0.000000	0.000000	0.000000	0.000000	0.000000	0.000000	0.000000	0.000000	0.000000	0.000000	0.000000	0.000000	0.000000	0.000000	0.000000	0.000000	0.000000	4.716454	524.774522	-130.161255	0.177960	0.000000	-0.895663	0.000000	3.301026	0.000000	-2.052166	522.594351	130.859337	0.205750	0.000000	-1.569028	0.000000	-1.105163	-0.000000
0.005500	0.000000	0.000000	0.000000	0.000000	0.000000	0.000000	0.000000	0.000000	0.000000	0.000000	0.000000	0.000000	0.000000	0.000000	0.000000	0.000000	0.000000	0.000000	0.000000	0.000000	0.000000	0.000000	0.000000	0.000000	0.000000	0.000000	0.000000	4.707938	524.763595	-130.144545	0.177957	0.000000	-0.895671	0.000000	3.307070	0.000000	-2.049670	522.559279	130.855090	0.205754	0.000000	-1.569046	0.000000	-1.111625	-0.000000
0.006000	0.000000	0.000000	0.000000	0.000000	0.000000	0.000000	0.000000	0.000000	0.000000	0.000000	0.000000	0.000000	0.000000	0.000000	0.000000	0.000000	0.000000	0.000000	0.000000	0.000000	0.000000	0.000000	0.000000	0.000000	0.000000	0.000000	0.000000	4.699379	524.750344	-130.127962	0.177954	0.000000	-0.895680	0.000000	3.312889	0.000000	-2.047593	522.524222	130.850777	0.205758	0.000000	-1.569064	0.000000	-1.117915	-0.000000
0.006500	0.000000	0.000000	0.000000	0.000000	0.000000	0.000000	0.000000	0.000000	0.000000	0.000000	0.000000	0.000000	0.000000	0.000000	0.000000	0.000000	0.000000	0.000000	0.000000	0.000000	0.000000	0.000000	0.000000	0.000000	0.000000	0.000000	0.000000	4.690810	524.734757	-130.111504	0.177951	0.000000	-0.895688	0.000000	3.318476	0.000000	-2.045907	522.489222	130.846391	0.205763	0.000000	-1.569081	0.000000	-1.124026	-0.000000
0.007000	0.000000	0.000000	0.000000	0.000000	0.000000	0.000000	0.000000	0.000000	0.000000	0.000000	0.000000	0.000000	0.000000	0.000000	0.000000	0.000000	0.000000	0.000000	0.000000	0.000000	0.000000	0.000000	0.000000	0.000000	0.000000	0.000000	0.000000	4.682263	524.716827	-130.095165	0.177948	0.000000	-0.895695	0.000000	3.323824	0.000000	-2.044586	522.454311	130.841921	0.205767	0.000000	-1.569097	0.000000	-1.129952	-0.000000
0.007500	0.000000	0.000000	0.000000	0.000000	0.000000	0.000000	0.000000	0.000000	0.000000	0.000000	0.000000	0.000000	0.000000	0.000000	0.000000	0.000000	0.000000	0.000000	0.000000	0.000000	0.000000	0.000000	0.000000	0.000000	0.000000	0.000000	0.000000	4.673775	524.696560	-130.078935	0.177945	0.000000	-0.895702	0.000000	3.328928	0.000000	-2.043599	522.419507	130.837355	0.205772	0.000000	-1.569113	0.000000	-1.135684	-0.000000
0.008000	0.000000	0.000000	0.000000	0.000000	0.000000	0.000000	0.000000	0.000000	0.000000	0.000000	0.000000	0.000000	0.000000	0.000000	0.000000	0.000000	0.000000	0.000000	0.000000	0.000000	0.000000	0.000000	0.000000	0.000000	0.000000	0.000000	0.000000	4.665381	524.673960	-130.062798	0.177943	0.000000	-0.895709	0.000000	3.333786	0.000000	-2.042919	522.384821	130.832676	0.205776	0.000000	-1.569129	0.000000	-1.141213	-0.000000
0.008500	0.000000	0.000000	0.000000	0.000000	0.000000	0.000000	0.000000	0.000000	0.000000	0.000000	0.000000	0.000000	0.000000	0.000000	0.000000	0.000000	0.000000	0.000000	0.000000	0.000000	0.000000	0.000000	0.000000	0.000000	0.000000	0.000000	0.000000	4.657118	524.649030	-130.046740	0.177942	0.000000	-0.895716	0.000000	3.338394	0.000000	-2.042516	522.350258	130.827867	0.205781	0.000000	-1.569144	0.000000	-1.146528	-0.000000
0.009000	0.000000	0.000000	0.000000	0.000000	0.000000	0.000000	0.000000	0.000000	0.000000	0.000000	0.000000	0.000000	0.000000	0.000000	0.000000	0.000000	0.000000	0.000000	0.000000	0.000000	0.000000	0.000000	0.000000	0.000000	0.000000	0.000000	0.000000	4.649014	524.621770	-130.030740	0.177940	0.000000	-0.895722	0.000000	3.342753	0.000000	-2.042364	522.315822	130.822906	0.205785	0.000000	-1.569158	0.000000	-1.151621	-0.000000
0.009500	0.000000	0.000000	0.000000	0.000000	0.000000	0.000000	0.000000	0.000000	0.000000	0.000000	0.000000	0.000000	0.000000	0.000000	0.000000	0.000000	0.000000	0.000000	0.000000	0.000000	0.000000	0.000000	0.000000	0.000000	0.000000	0.000000	0.000000	4.641090	524.592176	-130.014775	0.177939	0.000000	-0.895728	0.000000	3.346864	0.000000	-2.042436	522.281514	130.817769	0.205790	0.000000	-1.569172	0.000000	-1.156481	-0.000000
0.010000	0.000000	0.000000	0.000000	0.000000	0.000000	0.000000	0.000000	0.000000	0.000000	0.000000	0.000000	0.000000	0.000000	0.000000	0.000000	0.000000	0.000000	0.000000	0.000000	0.000000	0.000000	0.000000	0.000000	0.000000	0.000000	0.000000	0.000000	4.633363	524.560246	-129.998818	0.177938	0.000000	-0.895734	0.000000	3.350732	0.000000	-2.042709	522.247321	130.812436	0.205795	0.000000	-1.569186	0.000000	-1.161105	-0.000000
0.010500	0.000000	0.000000	0.000000	0.000000	0.000000	0.000000	0.000000	0.000000	0.000000	0.000000	0.000000	0.000000	0.000000	0.000000	0.000000	0.000000	0.000000	0.000000	0.000000	0.000000	0.000000	0.000000	0.000000	0.000000	0.000000	0.000000	0.000000	4.625848	524.525987	-129.982847	0.177938	0.000000	-0.895739	0.000000	3.354360	0.000000	-2.043156	522.213216	130.806892	0.205800	0.000000	-1.569199	0.000000	-1.165486	-0.000000
0.011000	0.000000	0.000000	0.000000	0.000000	0.000000	0.000000	0.000000	0.000000	0.000000	0.000000	0.000000	0.000000	0.000000	0.000000	0.000000	0.000000	0.000000	0.000000	0.000000	0.000000	0.000000	0.000000	0.000000	0.000000	0.000000	0.000000	0.000000	4.618551	524.489423	-129.966841	0.177938	0.000000	-0.895744	0.000000	3.357753	0.000000	-2.043753	522.179149	130.801127	0.205805	0.000000	-1.569211	0.000000	-1.169625	-0.000000
0.011500	0.000000	0.000000	0.000000	0.000000	0.000000	0.000000	0.000000	0.000000	0.000000	0.000000	0.000000	0.000000	0.000000	0.000000	0.000000	0.000000	0.000000	0.000000	0.000000	0.000000	0.000000	0.000000	0.000000	0.000000	0.000000	0.000000	0.000000	4.611477	524.450599	-129.950786	0.177938	0.000000	-0.895748	0.000000	3.360920	0.000000	-2.044474	522.145061	130.795138	0.205811	0.000000	-1.569224	0.000000	-1.173521	-0.000000
0.012000	0.000000	0.000000	0.000000	0.000000	0.000000	0.000000	0.000000	0.000000	0.000000	0.000000	0.000000	0.000000	0.000000	0.000000	0.000000	0.000000	0.000000	0.000000	0.000000	0.000000	0.000000	0.000000	0.000000	0.000000	0.000000	0.000000	0.000000	4.604628	524.409582	-129.934667	0.177939	0.000000	-0.895753	0.000000	3.363868	0.000000	-2.045298	522.110889	130.788927	0.205816	0.000000	-1.569236	0.000000	-1.177176	-0.000000
